<svg xmlns="http://www.w3.org/2000/svg" viewBox="0 0 800 600">
  <defs>
    <linearGradient id="grad1" x1="0%" y1="0%" x2="100%" y2="100%">
      <stop offset="0%" style="stop-color:#6D28D9;stop-opacity:1" />
      <stop offset="100%" style="stop-color:#4F46E5;stop-opacity:1" />
    </linearGradient>
    <linearGradient id="grad2" x1="0%" y1="0%" x2="100%" y2="0%">
      <stop offset="0%" style="stop-color:#EC4899;stop-opacity:1" />
      <stop offset="100%" style="stop-color:#8B5CF6;stop-opacity:1" />
    </linearGradient>
  </defs>

  <!-- Disco de vinilo -->
  <circle cx="400" cy="300" r="200" fill="#111827" />
  <circle cx="400" cy="300" r="190" fill="#374151" />
  <circle cx="400" cy="300" r="70" fill="#111827" />
  <circle cx="400" cy="300" r="20" fill="#F9FAFB" />

  <!-- Líneas de vinilo -->
  <circle cx="400" cy="300" r="180" fill="none" stroke="#111827" stroke-width="1" />
  <circle cx="400" cy="300" r="170" fill="none" stroke="#111827" stroke-width="1" />
  <circle cx="400" cy="300" r="160" fill="none" stroke="#111827" stroke-width="1" />
  <circle cx="400" cy="300" r="150" fill="none" stroke="#111827" stroke-width="1" />
  <circle cx="400" cy="300" r="140" fill="none" stroke="#111827" stroke-width="1" />
  <circle cx="400" cy="300" r="130" fill="none" stroke="#111827" stroke-width="1" />
  <circle cx="400" cy="300" r="120" fill="none" stroke="#111827" stroke-width="1" />
  <circle cx="400" cy="300" r="110" fill="none" stroke="#111827" stroke-width="1" />
  <circle cx="400" cy="300" r="100" fill="none" stroke="#111827" stroke-width="1" />
  <circle cx="400" cy="300" r="90" fill="none" stroke="#111827" stroke-width="1" />
  <circle cx="400" cy="300" r="80" fill="none" stroke="#111827" stroke-width="1" />

  <!-- Auriculares -->
  <path d="M250,150 C250,100 300,50 400,50 C500,50 550,100 550,150" fill="none" stroke="#EC4899" stroke-width="15" />
  <rect x="220" y="150" width="30" height="80" rx="10" fill="#EC4899" />
  <rect x="550" y="150" width="30" height="80" rx="10" fill="#EC4899" />

  <!-- Notas musicales -->
  <text x="200" y="200" font-size="40" font-family="Arial" fill="url(#grad2)">♪</text>
  <text x="550" y="220" font-size="50" font-family="Arial" fill="url(#grad2)">♫</text>
  <text x="500" y="450" font-size="40" font-family="Arial" fill="url(#grad2)">♩</text>
  <text x="250" y="400" font-size="45" font-family="Arial" fill="url(#grad2)">♬</text>
</svg>
